<svg width="57" height="57" viewBox="0 0 57 57" fill="none" xmlns="http://www.w3.org/2000/svg">
<path d="M30.2326 37V20.2H37.5766C39.4006 20.2 41.0006 20.552 42.3766 21.256C43.7526 21.96 44.8246 22.936 45.5926 24.184C46.3606 25.432 46.7446 26.904 46.7446 28.6C46.7446 30.28 46.3606 31.752 45.5926 33.016C44.8246 34.264 43.7526 35.24 42.3766 35.944C41.0006 36.648 39.4006 37 37.5766 37H30.2326ZM33.3526 34.36H37.4326C38.6806 34.36 39.7686 34.12 40.6966 33.64C41.6246 33.16 42.3366 32.488 42.8326 31.624C43.3446 30.76 43.6006 29.752 43.6006 28.6C43.6006 27.432 43.3446 26.424 42.8326 25.576C42.3366 24.712 41.6246 24.04 40.6966 23.56C39.7686 23.08 38.6806 22.84 37.4326 22.84H33.3526V34.36Z" fill="white"/>
<path d="M9.88 37L17.44 20.2H20.512L28.096 37H24.832L18.328 21.856H19.576L13.096 37H9.88ZM13.36 33.112L14.2 30.664H23.272L24.112 33.112H13.36Z" fill="white"/>
<path d="M54 28.5C54 14.4167 42.5833 3 28.5 3C14.4167 3 3 14.4167 3 28.5C3 42.5833 14.4167 54 28.5 54V57C12.7599 57 0 44.2401 0 28.5C0 12.7599 12.7599 0 28.5 0C44.2401 0 57 12.7599 57 28.5C57 44.2401 44.2401 57 28.5 57V54C42.5833 54 54 42.5833 54 28.5Z" fill="white"/>
</svg>
