<svg xmlns="http://www.w3.org/2000/svg" version="1.1" xmlns:xlink="http://www.w3.org/1999/xlink" xmlns:svgjs="http://svgjs.com/svgjs" width="450" height="950" preserveAspectRatio="none" viewBox="0 0 450 950"><g mask="url(&quot;#SvgjsMask1862&quot;)" fill="none"><rect width="450" height="950" x="0" y="0" fill="url(#SvgjsLinearGradient1863)"></rect><path d="M0 0L202.19 0L0 226.03z" fill="rgba(255, 255, 255, .1)"></path><path d="M0 226.03L202.19 0L300.78 0L0 411.38z" fill="rgba(255, 255, 255, .075)"></path><path d="M0 411.38L300.78 0L374.65999999999997 0L0 597.6800000000001z" fill="rgba(255, 255, 255, .05)"></path><path d="M0 597.6800000000001L374.65999999999997 0L405.68999999999994 0L0 756.9100000000001z" fill="rgba(255, 255, 255, .025)"></path><path d="M450 950L445.98 950L450 867.2z" fill="rgba(0, 0, 0, .1)"></path><path d="M450 867.2L445.98 950L369.47 950L450 604.8600000000001z" fill="rgba(0, 0, 0, .075)"></path><path d="M450 604.86L369.47 950L237.77000000000004 950L450 244.19z" fill="rgba(0, 0, 0, .05)"></path><path d="M450 244.19000000000005L237.77 950L203.34 950L450 80.34000000000006z" fill="rgba(0, 0, 0, .025)"></path></g><defs><mask id="SvgjsMask1862"><rect width="450" height="950" fill="#ffffff"></rect></mask><linearGradient x1="-27.78%" y1="13.16%" x2="127.78%" y2="86.84%" gradientUnits="userSpaceOnUse" id="SvgjsLinearGradient1863"><stop stop-color="rgba(0, 128, 128, 1)" offset="0.45"></stop><stop stop-color="rgba(75, 59, 71, 1)" offset="1"></stop></linearGradient></defs></svg>